<mxfile host="app.diagrams.net" agent="Mozilla/5.0 (Windows NT 10.0; Win64; x64) AppleWebKit/537.36 (KHTML, like Gecko) Chrome/133.0.0.0 Safari/537.36" version="26.0.16">
  <diagram name="Halaman-1" id="Cy1xRhIUDtqxtEewvaAy">
    <mxGraphModel dx="734" dy="881" grid="0" gridSize="10" guides="1" tooltips="1" connect="1" arrows="1" fold="1" page="0" pageScale="1" pageWidth="827" pageHeight="1169" math="0" shadow="0">
      <root>
        <mxCell id="0" />
        <mxCell id="1" parent="0" />
        <mxCell id="cYbE1FvfVPDXUfCUKK_h-1" value="Anggota" style="shape=umlActor;verticalLabelPosition=bottom;verticalAlign=top;html=1;outlineConnect=0;" vertex="1" parent="1">
          <mxGeometry x="-340" y="97" width="30" height="60" as="geometry" />
        </mxCell>
        <mxCell id="cYbE1FvfVPDXUfCUKK_h-4" value="Pinjam buku" style="ellipse;whiteSpace=wrap;html=1;" vertex="1" parent="1">
          <mxGeometry x="-214" y="25" width="120" height="80" as="geometry" />
        </mxCell>
        <mxCell id="cYbE1FvfVPDXUfCUKK_h-5" value="Kembalikan buku" style="ellipse;whiteSpace=wrap;html=1;" vertex="1" parent="1">
          <mxGeometry x="-214" y="174" width="120" height="80" as="geometry" />
        </mxCell>
        <mxCell id="cYbE1FvfVPDXUfCUKK_h-6" value="" style="endArrow=none;html=1;rounded=0;fontSize=12;startSize=8;endSize=8;curved=1;entryX=0;entryY=0.5;entryDx=0;entryDy=0;" edge="1" parent="1" target="cYbE1FvfVPDXUfCUKK_h-4">
          <mxGeometry width="50" height="50" relative="1" as="geometry">
            <mxPoint x="-310" y="130" as="sourcePoint" />
            <mxPoint x="-165" y="173" as="targetPoint" />
          </mxGeometry>
        </mxCell>
        <mxCell id="cYbE1FvfVPDXUfCUKK_h-7" value="" style="endArrow=none;html=1;rounded=0;fontSize=12;startSize=8;endSize=8;curved=1;entryX=0;entryY=0.5;entryDx=0;entryDy=0;" edge="1" parent="1" target="cYbE1FvfVPDXUfCUKK_h-5">
          <mxGeometry width="50" height="50" relative="1" as="geometry">
            <mxPoint x="-311" y="128" as="sourcePoint" />
            <mxPoint x="-204" y="75" as="targetPoint" />
          </mxGeometry>
        </mxCell>
        <mxCell id="cYbE1FvfVPDXUfCUKK_h-8" value="Input data peminjaman" style="ellipse;whiteSpace=wrap;html=1;" vertex="1" parent="1">
          <mxGeometry x="43" y="-111" width="120" height="80" as="geometry" />
        </mxCell>
        <mxCell id="cYbE1FvfVPDXUfCUKK_h-9" value="Input data pengembalian" style="ellipse;whiteSpace=wrap;html=1;" vertex="1" parent="1">
          <mxGeometry x="36" y="55" width="120" height="80" as="geometry" />
        </mxCell>
        <mxCell id="cYbE1FvfVPDXUfCUKK_h-10" value="Laporan peminjaman" style="ellipse;whiteSpace=wrap;html=1;" vertex="1" parent="1">
          <mxGeometry x="43" y="216" width="120" height="80" as="geometry" />
        </mxCell>
        <mxCell id="cYbE1FvfVPDXUfCUKK_h-14" value="" style="endArrow=none;dashed=1;html=1;dashPattern=1 3;strokeWidth=2;rounded=0;fontSize=12;startSize=8;endSize=8;curved=1;entryX=0;entryY=0.5;entryDx=0;entryDy=0;exitX=1;exitY=0.5;exitDx=0;exitDy=0;" edge="1" parent="1" source="cYbE1FvfVPDXUfCUKK_h-4" target="cYbE1FvfVPDXUfCUKK_h-8">
          <mxGeometry width="50" height="50" relative="1" as="geometry">
            <mxPoint x="-7" y="132" as="sourcePoint" />
            <mxPoint x="45" y="-27" as="targetPoint" />
          </mxGeometry>
        </mxCell>
        <mxCell id="cYbE1FvfVPDXUfCUKK_h-15" value="" style="endArrow=none;dashed=1;html=1;dashPattern=1 3;strokeWidth=2;rounded=0;fontSize=12;startSize=8;endSize=8;curved=1;exitX=1;exitY=0.5;exitDx=0;exitDy=0;entryX=0;entryY=0.5;entryDx=0;entryDy=0;" edge="1" parent="1" source="cYbE1FvfVPDXUfCUKK_h-5" target="cYbE1FvfVPDXUfCUKK_h-9">
          <mxGeometry width="50" height="50" relative="1" as="geometry">
            <mxPoint x="-7" y="132" as="sourcePoint" />
            <mxPoint x="43" y="82" as="targetPoint" />
          </mxGeometry>
        </mxCell>
        <mxCell id="cYbE1FvfVPDXUfCUKK_h-16" value="" style="endArrow=none;dashed=1;html=1;dashPattern=1 3;strokeWidth=2;rounded=0;fontSize=12;startSize=8;endSize=8;curved=1;entryX=0.5;entryY=1;entryDx=0;entryDy=0;exitX=0.561;exitY=0.038;exitDx=0;exitDy=0;exitPerimeter=0;" edge="1" parent="1" source="cYbE1FvfVPDXUfCUKK_h-9" target="cYbE1FvfVPDXUfCUKK_h-8">
          <mxGeometry width="50" height="50" relative="1" as="geometry">
            <mxPoint x="-7" y="132" as="sourcePoint" />
            <mxPoint x="43" y="82" as="targetPoint" />
          </mxGeometry>
        </mxCell>
        <mxCell id="cYbE1FvfVPDXUfCUKK_h-17" value="Actor" style="shape=umlActor;verticalLabelPosition=bottom;verticalAlign=top;html=1;outlineConnect=0;" vertex="1" parent="1">
          <mxGeometry x="306" y="71" width="30" height="60" as="geometry" />
        </mxCell>
        <mxCell id="cYbE1FvfVPDXUfCUKK_h-18" value="" style="endArrow=none;html=1;rounded=0;fontSize=12;startSize=8;endSize=8;curved=1;entryX=1;entryY=0.5;entryDx=0;entryDy=0;" edge="1" parent="1" target="cYbE1FvfVPDXUfCUKK_h-8">
          <mxGeometry width="50" height="50" relative="1" as="geometry">
            <mxPoint x="292" y="100" as="sourcePoint" />
            <mxPoint x="228" y="-9" as="targetPoint" />
          </mxGeometry>
        </mxCell>
        <mxCell id="cYbE1FvfVPDXUfCUKK_h-19" value="" style="endArrow=none;html=1;rounded=0;fontSize=12;startSize=8;endSize=8;curved=1;exitX=1;exitY=0.5;exitDx=0;exitDy=0;" edge="1" parent="1" source="cYbE1FvfVPDXUfCUKK_h-9">
          <mxGeometry width="50" height="50" relative="1" as="geometry">
            <mxPoint x="178" y="41" as="sourcePoint" />
            <mxPoint x="291" y="98" as="targetPoint" />
          </mxGeometry>
        </mxCell>
        <mxCell id="cYbE1FvfVPDXUfCUKK_h-20" value="" style="endArrow=none;html=1;rounded=0;fontSize=12;startSize=8;endSize=8;curved=1;exitX=1;exitY=0.5;exitDx=0;exitDy=0;" edge="1" parent="1" source="cYbE1FvfVPDXUfCUKK_h-10">
          <mxGeometry width="50" height="50" relative="1" as="geometry">
            <mxPoint x="178" y="41" as="sourcePoint" />
            <mxPoint x="291" y="99" as="targetPoint" />
          </mxGeometry>
        </mxCell>
        <mxCell id="cYbE1FvfVPDXUfCUKK_h-21" value="Include" style="text;html=1;align=center;verticalAlign=middle;whiteSpace=wrap;rounded=0;rotation=0;" vertex="1" parent="1">
          <mxGeometry x="36" y="-3" width="60" height="30" as="geometry" />
        </mxCell>
        <mxCell id="cYbE1FvfVPDXUfCUKK_h-22" value="Include" style="text;html=1;align=center;verticalAlign=middle;whiteSpace=wrap;rounded=0;rotation=-45;" vertex="1" parent="1">
          <mxGeometry x="-71" y="117" width="60" height="30" as="geometry" />
        </mxCell>
        <mxCell id="cYbE1FvfVPDXUfCUKK_h-24" value="Include" style="text;html=1;align=center;verticalAlign=middle;whiteSpace=wrap;rounded=0;rotation=-45;" vertex="1" parent="1">
          <mxGeometry x="-73" y="-28" width="60" height="30" as="geometry" />
        </mxCell>
      </root>
    </mxGraphModel>
  </diagram>
</mxfile>
